<?xml version="1.0" encoding="UTF-8" standalone="no"?>
<svg enable-background="new 0 0 500 500" height="259.62686" viewBox="0 0 348 259.62686" width="348" xmlns="http://www.w3.org/2000/svg" xmlns:xlink="http://www.w3.org/1999/xlink">
   <filter id="a" color-interpolation-filters="sRGB" height="1.1256243" width="1.2535162" x="-.12675812" y="-.06281216">
      <feGaussianBlur stdDeviation="4.1080607"/>
   </filter>
   <filter id="b" color-interpolation-filters="sRGB" height="1.1143" width="1.1945532" x="-.0972766" y="-.05715">
      <feGaussianBlur stdDeviation="4.0030989"/>
   </filter>
   <path d="m238.33507 11.868694l76.93839 43.52354.84239 30.32608-51.10506-24.99093-.56159 21.62137 27.51811 12.91666 1.12318 32.291656-26.67572-10.10869 1.96558 51.38586-29.76448-16.00543z" fill="#a5aaaa" fill-opacity=".39215687" fill-rule="evenodd" filter="url(#a)"/>
   <path d="m113.21066 174.81453l96.66276-55.1608 2.10136 28.10575-30.20711 17.59892 1.57603 108.74559-26.00439 13.65888-4.4654-104.80555-37.03654 21.27632-2.36404-28.36842z" fill="#a5aaaa" fill-opacity=".39215687" fill-rule="evenodd" filter="url(#b)" transform="matrix(1.0262759 0 0 1.0262759 -79.722279 -112.93786)"/>
   <g transform="translate(-77 -105.12415)">
      <path d="m243.128 245.165l21.036-12.168 20.736 12.168-20.736 11.974-21.036-11.688z" fill="#f6bd3a"/>
      <path d="m180 209.098l84.164-47.803 62.625 35.6-20.818 36.101-41.807-23.898-63.113 35.825z" fill="#f6bd3a"/>
      <path d="m243.128 292.969v-23.83l20.749-12 21.023-11.974v23.974l-20.736 11.91v23.845l-21.036 12.217zm0-47.804l-21.028-11.914-21.049 11.671v-23.878l63.113-35.852v47.803zm62.556-24.12v-11.947l21.105-12.203.211 23.899-21.029 12.202z" fill="#eb8c23"/>
      <path d="m222.1 304.453v-71.202l20.741-11.667.287 23.581 21.036 11.758v24.126l-21.036-11.197v47.259zm-31.726-65.746l-10.374-6.211v-23.397l21.051 11.947v23.878zm73.79-29.609v-23.905l41.52 23.905.287 23.898z" fill="#e35a2b"/>
   </g>
</svg>
